# xmcd
#
# Track frame offsets:
#	150
#	14706
#	27740
#	41493
#	53762
#	66173
#	79644
#	93143
#	106620
#	120779
#	135365
#	148845
#	162225
#	175680
#	191787
#	205877
#	220140
#	232152
#	242778
#	259863
#
# Disc length: 3680 seconds
#
# Revision: 1
# Processed by: cddbd v1.4PL0 Copyright (c) Steve Scherf et al.
# Submitted via: audiograbber 1.80.04
#
DISCID=150e5e14
DTITLE=John lee Hooker - The Blues Collection
DYEAR=2000
DGENRE=Blues
TTITLE0=Don't Go Baby
TTITLE1=Devil's Jump
TTITLE2=I'm Gonna Kill That Woman
TTITLE3=Moaning Blues
TTITLE4=Don't You Remember Me
TTITLE5=Thinking Blues
TTITLE6=Slim's Stomp
TTITLE7=Heart Trouble Blues
TTITLE8=The Numbers
TTITLE9=Wandering Blues
TTITLE10=Late Last Night
TTITLE11=Nightmare Blues
TTITLE12=Poor Joe
TTITLE13=Black Man Blues
TTITLE14=Who's Been Jivin' You?
TTITLE15=Stomp Boogie
TTITLE16=Crawlin' King Snake
TTITLE17=Maudie
TTITLE18=Blues Before Sunrise
TTITLE19=My First Wife Left Me
EXTD=
EXTT0=
EXTT1=
EXTT2=
EXTT3=
EXTT4=
EXTT5=
EXTT6=
EXTT7=
EXTT8=
EXTT9=
EXTT10=
EXTT11=
EXTT12=
EXTT13=
EXTT14=
EXTT15=
EXTT16=
EXTT17=
EXTT18=
EXTT19=
PLAYORDER=
